:SAMPLES-PER-SECOND 30
:FULLY-SPECIFIED
:DEGREES
48
root  -31.6704 38.6071 -2.09783 178.31 -59.2462 174.544
RightUpLeg  -3.77794 4.8807 0.773551
RightLeg  36.8617 -7.52094 -6.28775
RightFoot  -25.4647 -0.467153 -2.37443
RightToes  0.000482159 0.542163 -0.142577
Spine  16.7307 -2.05872 6.72183
Spine1  9.55405 -1.99428 2.80809
HEad  13.2329 -7.33666 2.08634
LeftShoulder1  6.92673 -10.9451 -41.5832
LeftArm  -30.674 11.5903 -22.7358
LeftForeArm  36.7719 -41.5117 -7.50852
LeftHand  -0.25398 0.0180481 5.50724
RightShoulder  4.41195 8.33362 31.3243
RightArm  2.09255 4.93097 42.717
RightForeArm  -9.35567 34.5528 8.26129
RightHand  -2.58626 6.85777 -24.5553
LeftUpLeg  -29.3214 4.37549 7.19078
LeftLeg  34.8292 3.33305 2.84504
LeftFoot  -6.0178 0.21341 -3.81087
LeftToes  1.06247e-005 4.65854e-005 -8.18501e-006
49
root  -33.2648 38.4688 -2.37246 178.54 -55.2077 174.631
RightUpLeg  -1.90173 8.03785 0.00323241
RightLeg  36.8709 -6.76618 -5.69198
RightFoot  -27.3367 -0.465498 -2.00107
RightToes  0.000482159 0.542163 -0.142577
Spine  16.1465 -1.68824 6.94792
Spine1  9.91152 -1.18124 0.912029
HEad  13.5454 -6.34124 2.50181
LeftShoulder1  6.80173 -10.741 -41.4038
LeftArm  -31.2137 12.8306 -21.6643
LeftForeArm  37.9362 -42.5264 -7.75147
LeftHand  -0.25398 0.0180481 5.50724
RightShoulder  4.59606 8.65029 31.8715
RightArm  4.25256 5.4618 43.858
RightForeArm  -11.336 34.1606 8.25321
RightHand  -2.4648 6.4926 -24.135
LeftUpLeg  -28.2479 4.64371 9.55535
LeftLeg  22.2428 3.81095 2.08707
LeftFoot  -6.43055 0.198984 -3.725
LeftToes  1.06247e-005 4.65854e-005 -8.18501e-006
50
root  -34.8674 38.3296 -2.63778 178.844 -50.6226 174.582
RightUpLeg  -0.173706 11.5545 -1.15775
RightLeg  36.6151 -5.5982 -4.71738
RightFoot  -28.8246 -0.333034 -0.893172
RightToes  0.000482159 0.542163 -0.142577
Spine  16.0939 -1.15284 6.92723
Spine1  10.4642 -0.0248226 -1.21277
HEad  13.6045 -5.41052 2.95341
LeftShoulder1  6.6885 -10.5525 -41.2483
LeftArm  -32.0537 14.287 -21.1604
LeftForeArm  40.1106 -44.0711 -8.10956
LeftHand  -0.25398 0.0180481 5.50724
RightShoulder  4.79917 8.99967 32.4419
RightArm  5.9901 5.51727 44.6097
RightForeArm  -13.1789 33.6894 8.2142
RightHand  -2.3437 6.036 -23.8707
LeftUpLeg  -25.9781 6.99416 11.4531
LeftLeg  9.57741 5.73538 1.16789
LeftFoot  -6.20639 0.269246 -5.19521
LeftToes  1.06247e-005 4.65854e-005 -8.18501e-006
51
root  -36.6356 38.1014 -2.86069 178.914 -45.6686 174.855
RightUpLeg  1.18974 14.5319 -2.75746
RightLeg  36.6424 -4.26329 -3.66463
RightFoot  -30.0947 -0.210367 -0.0292111
RightToes  0.000482159 0.542163 -0.142577
Spine  16.1502 -0.558617 7.81056
Spine1  11.0161 1.45146 -3.58686
HEad  13.3402 -4.68863 3.37168
LeftShoulder1  6.66393 -10.5096 -41.22
LeftArm  -32.4581 15.3081 -21.0579
LeftForeArm  41.9153 -45.3233 -8.4109
LeftHand  -0.25398 0.0180481 5.50724
RightShoulder  4.97728 9.33514 32.8261
RightArm  6.79086 4.98423 45.023
RightForeArm  -14.2329 33.0523 8.0884
RightHand  -2.28608 5.76348 -23.8469
LeftUpLeg  -22.9443 9.4222 13.4294
LeftLeg  0.087221 10.9897 -0.963419
LeftFoot  -7.0868 0.271481 -6.10907
LeftToes  1.06247e-005 4.65854e-005 -8.18501e-006
52
root  -38.5608 37.8031 -3.02189 179.062 -41.1947 175.337
RightUpLeg  2.25736 16.5337 -4.84194
RightLeg  36.5796 -3.18819 -2.80574
RightFoot  -31.3066 -0.0894711 0.689777
RightToes  0.000482159 0.542163 -0.142577
Spine  16.4421 -0.236898 9.27864
Spine1  11.3617 2.78616 -6.03299
HEad  12.8584 -4.20312 3.69492
LeftShoulder1  6.6087 -10.4169 -41.1444
LeftArm  -31.6741 15.3022 -21.3913
LeftForeArm  42.0293 -45.5675 -8.48849
LeftHand  -0.25398 0.0180481 5.50724
RightShoulder  5.13865 9.64704 33.1321
RightArm  6.88058 4.07851 44.8011
RightForeArm  -14.8698 32.2533 7.89932
RightHand  -2.28824 5.76865 -23.8583
LeftUpLeg  -21.4167 10.6679 14.3124
LeftLeg  -1.87376 15.3822 -2.13345
LeftFoot  -8.57609 0.179159 -5.4178
LeftToes  1.06247e-005 4.65854e-005 -8.18501e-006
53
root  -40.4976 37.4681 -3.08962 179.335 -37.8633 176.029
RightUpLeg  2.72633 17.7916 -7.1537
RightLeg  36.7428 -2.08355 -1.92857
RightFoot  -32.0524 0.358226 3.15351
RightToes  0.000482159 0.542163 -0.142577
Spine  17.7327 -0.223828 10.033
Spine1  11.1861 3.37911 -7.18021
HEad  11.9088 -3.92335 3.85007
LeftShoulder1  6.54948 -10.2519 -41.2748
LeftArm  -29.964 14.097 -22.169
LeftForeArm  41.0213 -45.1174 -8.39972
LeftHand  -0.25398 0.0180481 5.50724
RightShoulder  5.28276 9.86345 33.5754
RightArm  7.38121 3.83019 43.4303
RightForeArm  -15.9403 31.0544 7.62844
RightHand  -2.35676 6.05456 -23.9591
LeftUpLeg  -22.7839 10.7913 13.9111
LeftLeg  3.52334 14.5193 -0.514683
LeftFoot  -6.39902 0.262913 -5.17459
LeftToes  1.06247e-005 4.65854e-005 -8.18501e-006
54
root  -42.3562 37.1173 -3.03435 179.633 -35.1848 176.796
RightUpLeg  1.42894 18.1128 -9.76896
RightLeg  39.1758 -1.02061 -1.15755
RightFoot  -30.7052 0.958444 6.91359
RightToes  0.000482159 0.542163 -0.142577
Spine  20.5456 -0.0852335 9.48753
Spine1  10.234 3.19316 -5.88512
HEad  9.65963 -3.77219 3.89429
LeftShoulder1  6.80195 -10.5187 -42.1011
LeftArm  -28.2533 11.7271 -22.9446
LeftForeArm  39.9621 -44.3922 -8.22344
LeftHand  -0.25398 0.0180481 5.50724
RightShoulder  5.42365 10.0549 34.0506
RightArm  9.0489 5.46204 41.0562
RightForeArm  -17.8003 28.7153 7.07751
RightHand  -2.47827 6.49452 -24.2573
LeftUpLeg  -25.9737 11.9693 12.7271
LeftLeg  10.8603 8.1688 1.00403
LeftFoot  1.28603 0.822625 -7.22922
LeftToes  1.06247e-005 4.65854e-005 -8.18501e-006
